<?xml version="1.0" encoding="UTF-8" standalone="no"?> <svg xmlns="http://www.w3.org/2000/svg" viewBox="0 0 64 64"><title>2</title><g id="Layer_90" data-name="Layer 90"><path d="M61.41,31.24,32.76,2.59a2,2,0,0,0-2.83,0L13.27,19.25A6.25,6.25,0,0,0,9.06,29.91l5.78,5.78a2.25,2.25,0,0,1,0,3.19L4.13,49.59A7.27,7.27,0,1,0,14.41,59.87L25.12,49.16a2.31,2.31,0,0,1,3.19,0l5.78,5.78a6.25,6.25,0,0,0,8.84,0h0a6.23,6.23,0,0,0,1.82-4.21L61.41,34.06A2,2,0,0,0,61.41,31.24ZM40.11,52.11a2.26,2.26,0,0,1-3.19,0l-5.78-5.78a6.25,6.25,0,0,0-8.85,0L11.58,57A3.35,3.35,0,0,1,7,57a3.27,3.27,0,0,1,0-4.62L17.67,41.71a6.25,6.25,0,0,0,0-8.85l-5.78-5.78a2.25,2.25,0,0,1,3.16-3.21L40.13,48.95A2.26,2.26,0,0,1,40.11,52.11Zm3.22-5.62L43,46.14l0-.05-25-25-.05,0-.35-.35L31.35,6.83l2.83,2.83-6,8.64,8.64-6,4.86,4.86-3.1,5.57,5.57-3.1,7.55,7.55-6,8.64,8.64-6,2.89,2.89Z"/></g></svg>